<svg id="Capa_1" enable-background="new 0 0 512 512" height="512" viewBox="0 0 512 512" width="512" xmlns="http://www.w3.org/2000/svg"><g><path d="m323 406v20c0 5.523 4.478 10 10 10s10-4.477 10-10v-20c0-5.523-4.478-10-10-10s-10 4.477-10 10z"/><path d="m383 436c5.522 0 10-4.477 10-10v-20c0-5.523-4.478-10-10-10s-10 4.477-10 10v20c0 5.523 4.478 10 10 10z"/><path d="m443 426v-20c0-5.523-4.478-10-10-10s-10 4.477-10 10v20c0 5.523 4.478 10 10 10s10-4.477 10-10z"/><path d="m73 76c-5.522 0-10 4.477-10 10v20c0 5.523 4.478 10 10 10s10-4.477 10-10v-20c0-5.523-4.478-10-10-10z"/><path d="m123 76c-5.522 0-10 4.477-10 10v20c0 5.523 4.478 10 10 10s10-4.477 10-10v-20c0-5.523-4.478-10-10-10z"/><path d="m173 76c-5.522 0-10 4.477-10 10v20c0 5.523 4.478 10 10 10s10-4.477 10-10v-20c0-5.523-4.478-10-10-10z"/><circle cx="383" cy="502" r="10"/><path d="m505.827 286.761c-3.737-1.549-8.038-.692-10.898 2.167l-37.072 37.072h-46.909c9.882-21.878 15.052-45.774 15.052-70 0-92.845-75.002-170-170-170-3.333 0-6.673.106-10 .3v-56.3c0-16.542-13.458-30-30-30h-186c-16.542 0-30 13.458-30 30v186c0 4.044 2.437 7.691 6.173 9.239 3.737 1.549 8.038.692 10.898-2.167l37.072-37.072 46.907-.01c-9.616 21.247-15.05 45.056-15.05 70.01 0 94.465 76.78 170 170 170 3.333 0 6.673-.106 10-.3v56.3c0 16.542 13.458 30 30 30h42c5.522 0 10-4.477 10-10s-4.478-10-10-10h-42c-5.514 0-10-4.486-10-10v-126c0-5.514 4.486-10 10-10h166c2.652 0 5.195-1.054 7.071-2.929l22.929-22.929v161.858c0 5.514-4.486 10-10 10h-53.999c-5.522 0-10 4.477-10 10s4.478 10 10 10h53.999c16.542 0 30-13.458 30-30v-186c0-4.044-2.437-7.691-6.173-9.239zm-141.547 39.239c1.11-3.13 1.72-6.494 1.72-10v-40c0-5.514 4.486-10 10-10.01h29.665c-1.398 21.008-7.192 41.485-16.981 60.01zm-108.28-220c38.298 0 74.432 14.366 101.998 40h-1.998c-16.542 0-30 13.458-30 30 0 5.514-4.486 10-10 10-16.542 0-30 13.458-30 30v40c0 5.514-4.486 10-10 10s-10-4.486-10-10v-20c0-16.542-13.458-30-30-30h-20c-5.514 0-10-4.486-10-10s4.486-10 10-10c16.542 0 30-13.458 30-30v-49.663c3.323-.219 6.664-.337 10-.337zm-206 60c-2.652 0-5.195 1.054-7.071 2.929l-22.929 22.929v-161.858c0-5.514 4.486-10 10-10h186c5.514 0 10 4.486 10 10v126c0 5.514-4.486 10-10 10zm59.022 60h6.978c5.514 0 10 4.486 10 10 0 16.542 13.458 30 30 30h40c5.514 0 10 4.486 10 10s-4.486 10-10 10c-16.542 0-30 13.458-30 30 0 5.514-4.486 10-10 10-10.313 0-19.427 5.232-24.828 13.18-16.339-24.503-25.172-53.398-25.172-83.18 0-10.124 1.025-20.178 3.022-30zm156.978 130v49.663c-3.323.219-6.664.337-10 .337-41.768 0-81.643-17.461-110-48.028v-1.972c0-5.514 4.486-10 10-10 16.542 0 30-13.458 30-30 0-5.514 4.486-10 10-10 16.542 0 30-13.458 30-30s-13.458-30-30-30h-40c-5.514 0-10-4.486-10-10 0-16.542-13.458-30-30-30h-1.441c2.422-6.854 5.34-13.551 8.755-20.01l64.406.01c-1.11 3.13-1.72 6.494-1.72 10 0 16.542 13.458 30 30 30h20c5.514 0 10 4.486 10 10v20c0 16.542 13.458 30 30 30s30-13.458 30-30v-40c0-5.514 4.486-10 10-10 16.542 0 30-13.458 30-30 0-5.514 4.486-10 10-10h20.006c17.633 23.435 27.783 50.833 29.668 80h-29.674c-16.542 0-30 13.458-30 30v40c0 5.514-4.486 10-10 10h-40c-16.542 0-30 13.458-30 30z"/></g></svg>